<svg xmlns="http://www.w3.org/2000/svg" id="Layer_1" width="339.8" height="88.4" viewBox="0 0 339.8 88.4">
  <path fill="#9ED3A3" d="M89 47.5c10.8-11 10.6-28.7-.5-39.5-11-10.8-28.7-10.6-39.5.5l-.8.9-.7-.7C36.5-2.1 18.8-1.9 8 9.2c-10.8 11-10.6 28.7.5 39.5l40.6 39.7 39-40c.3-.4.6-.6.9-.9z"/>
  <path fill="#7BC688" d="M65.5 54.9c4.4-4.5 4.3-11.7-.2-16.1s-11.7-4.3-16.1.2c-.1.1-.2.2-.3.4l-.3-.3c-4.5-4.4-11.7-4.3-16.1.2s-4.3 11.7.2 16.1l16.5 16.1 15.9-16.3.4-.3z"/>
  <path fill="none" stroke="#7BC688" stroke-width="2" stroke-miterlimit="10" d="M66.9 48.9L80 35.6l18 39.6 3.1-24.1 3.7 16.9 3.2-16.2 5.6 24.8 12.5-41 16.6 38.5 10.9-38.5 8.3 18 2.8-4.7 3.1 7.2 1.5-7.2 2.2 7.2h36.1m-2.1 0h134.3"/>
</svg>
